<svg xmlns="http://www.w3.org/2000/svg" width="54" height="54" viewBox="0 0 54 54">
  <g id="Group_15102" data-name="Group 15102" transform="translate(-22184 -971)">
    <circle id="Ellipse_358" data-name="Ellipse 358" cx="27" cy="27" r="27" transform="translate(22184 971)" fill="#fff"/>
    <path id="Path_3871" data-name="Path 3871" d="M151.421,51.218h-7.239V50.27a3.8,3.8,0,0,0-3.79-3.79H134.63a3.8,3.8,0,0,0-3.79,3.79v.948H123.6a1.516,1.516,0,1,0,0,3.032h2.122l.607,18a6.044,6.044,0,0,0,6.064,5.875h10.234a6.044,6.044,0,0,0,6.064-5.875l.606-18h2.122a1.516,1.516,0,1,0,0-3.032Zm-17.549-.948a.76.76,0,0,1,.758-.758h5.761a.76.76,0,0,1,.758.758v.948h-7.277Zm.606,19.936a1.516,1.516,0,0,1-3.032,0V58.874a1.516,1.516,0,0,1,3.032,0Zm4.548,0a1.516,1.516,0,1,1-3.032,0V58.874a1.516,1.516,0,0,1,3.032,0Zm4.548,0a1.516,1.516,0,1,1-3.032,0V58.874a1.516,1.516,0,0,1,3.032,0Z" transform="translate(22073.488 935.696)" fill="#ccc"/>
  </g>
</svg>
