<svg xmlns="http://www.w3.org/2000/svg" width="170.451" height="57.663" viewBox="0 0 170.451 57.663">
  <g id="Group_3" data-name="Group 3" transform="translate(-449.314 -1234.953)">
    <text id="Demande" transform="translate(503.765 1285.616)" fill="#fff" font-size="28" font-family="Righteous-Regular, Righteous" letter-spacing="-0.02em"><tspan x="0" y="0">Demande</tspan></text>
    <text id="Shop" transform="translate(503.765 1262.953)" fill="#fff" font-size="28" font-family="Righteous-Regular, Righteous" letter-spacing="-0.04em"><tspan x="0" y="0">Shop</tspan></text>
    <g id="Group_2" data-name="Group 2" transform="translate(449.314 1242.394)">
      <g id="Group_1" data-name="Group 1" transform="translate(0 0)">
        <path id="Path_1" data-name="Path 1" d="M472.742,1260.554l1.613,5.818,8.537,6.434-3.915-14.114-.023-.078a8.293,8.293,0,0,0-1.794-3.011,8.82,8.82,0,0,0-6.714-2.8H449.314l1.344,6.506h19.789A2.231,2.231,0,0,1,472.742,1260.554Z" transform="translate(-449.314 -1252.802)" fill="#fff"/>
        <circle id="Ellipse_1" data-name="Ellipse 1" cx="3.919" cy="3.919" r="3.919" transform="translate(16.351 36.286)" fill="#fff"/>
        <circle id="Ellipse_2" data-name="Ellipse 2" cx="3.919" cy="3.919" r="3.919" transform="translate(32.244 36.286)" fill="#fff"/>
      </g>
      <path id="Path_2" data-name="Path 2" d="M494.152,1259.308h7.561l-1.639-6.506H485.886l6.365,26.335a2.121,2.121,0,0,1-.355,1.8,1.122,1.122,0,0,1-.862.478H467.065a1.443,1.443,0,0,1-1.216-1.226l-1.736-7.181h15.75l-8.6-6.484.017-.022H455.847l3.678,15.216a7.877,7.877,0,0,0,7.54,6.2h23.969a7.592,7.592,0,0,0,5.975-2.96,8.672,8.672,0,0,0,1.565-7.354Z" transform="translate(-453.123 -1252.802)" fill="#d7001a"/>
    </g>
  </g>
</svg>
