<svg xmlns="http://www.w3.org/2000/svg" width="54" height="50" viewBox="0 0 54 50">
  <g id="Group_65" data-name="Group 65" transform="translate(-1707 -1185)">
    <g id="Group_62" data-name="Group 62">
      <g id="Rectangle_31" data-name="Rectangle 31" transform="translate(1707 1185)" fill="none" stroke="#004195" stroke-width="2">
        <rect width="14" height="14" stroke="none"/>
        <rect x="1" y="1" width="12" height="12" fill="none"/>
      </g>
      <g id="Rectangle_32" data-name="Rectangle 32" transform="translate(1727 1185)" fill="none" stroke="#004195" stroke-width="2">
        <rect width="14" height="14" stroke="none"/>
        <rect x="1" y="1" width="12" height="12" fill="none"/>
      </g>
      <g id="Rectangle_33" data-name="Rectangle 33" transform="translate(1747 1185)" fill="none" stroke="#004195" stroke-width="2">
        <rect width="14" height="14" stroke="none"/>
        <rect x="1" y="1" width="12" height="12" fill="none"/>
      </g>
    </g>
    <g id="Group_63" data-name="Group 63" transform="translate(0 18)">
      <g id="Rectangle_31-2" data-name="Rectangle 31" transform="translate(1707 1185)" fill="none" stroke="#004195" stroke-width="2">
        <rect width="14" height="14" stroke="none"/>
        <rect x="1" y="1" width="12" height="12" fill="none"/>
      </g>
      <g id="Rectangle_32-2" data-name="Rectangle 32" transform="translate(1727 1185)" fill="none" stroke="#004195" stroke-width="2">
        <rect width="14" height="14" stroke="none"/>
        <rect x="1" y="1" width="12" height="12" fill="none"/>
      </g>
      <g id="Rectangle_33-2" data-name="Rectangle 33" transform="translate(1747 1185)" fill="none" stroke="#004195" stroke-width="2">
        <rect width="14" height="14" stroke="none"/>
        <rect x="1" y="1" width="12" height="12" fill="none"/>
      </g>
    </g>
    <g id="Group_64" data-name="Group 64" transform="translate(0 36)">
      <g id="Rectangle_31-3" data-name="Rectangle 31" transform="translate(1707 1185)" fill="none" stroke="#004195" stroke-width="2">
        <rect width="14" height="14" stroke="none"/>
        <rect x="1" y="1" width="12" height="12" fill="none"/>
      </g>
      <g id="Rectangle_32-3" data-name="Rectangle 32" transform="translate(1727 1185)" fill="none" stroke="#004195" stroke-width="2">
        <rect width="14" height="14" stroke="none"/>
        <rect x="1" y="1" width="12" height="12" fill="none"/>
      </g>
      <g id="Rectangle_33-3" data-name="Rectangle 33" transform="translate(1747 1185)" fill="none" stroke="#004195" stroke-width="2">
        <rect width="14" height="14" stroke="none"/>
        <rect x="1" y="1" width="12" height="12" fill="none"/>
      </g>
    </g>
  </g>
</svg>
